# Blender 4.2.1 LTS
# www.blender.org
o Cube
v 0.753178 0.826130 -3.000000
v 0.500000 0.000000 -3.000000
v 0.753178 0.826130 1.000000
v 0.500000 0.000000 1.000000
v 0.467046 0.945670 1.000000
v 0.000000 1.000000 1.000000
v 0.467046 0.945670 -3.000000
v 0.000000 1.000000 -3.000000
v 1.000000 0.000000 -3.000000
v 1.000000 0.000000 1.000000
v 0.000000 0.000000 -3.000000
v 0.000000 0.000000 1.000000
v 0.467046 0.513635 -3.000000
v 0.467046 0.513635 1.000000
v 0.910870 0.513635 -3.000000
v 0.910870 0.513635 1.000000
v 0.000000 0.500000 -3.000000
v 0.000000 0.500000 1.000000
v -0.753178 0.826130 -3.000000
v -0.500000 0.000000 -3.000000
v -0.753178 0.826130 1.000000
v -0.500000 0.000000 1.000000
v -0.467046 0.945670 1.000000
v -0.467046 0.945670 -3.000000
v -1.000000 0.000000 -3.000000
v -1.000000 0.000000 1.000000
v -0.467046 0.513635 -3.000000
v -0.467046 0.513635 1.000000
v -0.910870 0.513635 -3.000000
v -0.910870 0.513635 1.000000
v 0.753178 -0.826130 -3.000000
v 0.753178 -0.826130 1.000000
v 0.467046 -0.945670 1.000000
v 0.000000 -1.000000 1.000000
v 0.467046 -0.945670 -3.000000
v 0.000000 -1.000000 -3.000000
v 0.467046 -0.513635 -3.000000
v 0.467046 -0.513635 1.000000
v 0.910870 -0.513635 -3.000000
v 0.910870 -0.513635 1.000000
v 0.000000 -0.500000 -3.000000
v 0.000000 -0.500000 1.000000
v -0.753178 -0.826130 -3.000000
v -0.753178 -0.826130 1.000000
v -0.467046 -0.945670 1.000000
v -0.467046 -0.945670 -3.000000
v -0.467046 -0.513635 -3.000000
v -0.467046 -0.513635 1.000000
v -0.910870 -0.513635 -3.000000
v -0.910870 -0.513635 1.000000
vn -0.0000 -0.0000 1.0000
vn 0.8928 0.4505 -0.0000
vn -0.0000 -0.0000 -1.0000
vn 0.1155 0.9933 -0.0000
vn 0.3855 0.9227 -0.0000
vn 0.9853 0.1710 -0.0000
vn -0.8928 0.4505 -0.0000
vn -0.1155 0.9933 -0.0000
vn -0.3855 0.9227 -0.0000
vn -0.9853 0.1710 -0.0000
vn 0.8928 -0.4505 -0.0000
vn 0.1155 -0.9933 -0.0000
vn 0.3855 -0.9227 -0.0000
vn 0.9853 -0.1710 -0.0000
vn -0.8928 -0.4505 -0.0000
vn -0.1155 -0.9933 -0.0000
vn -0.3855 -0.9227 -0.0000
vn -0.9853 -0.1710 -0.0000
vt 0.474848 0.043572
vt 0.546365 0.121678
vt 0.435434 0.121678
vt 0.195143 0.999886
vt 0.282631 0.000114
vt 0.282630 0.999886
vt 0.546365 0.378665
vt 0.474848 0.456771
vt 0.435434 0.378665
vt 0.546365 0.013694
vt 0.663100 0.125086
vt 0.000114 0.999886
vt 0.117636 0.000114
vt 0.117636 0.999886
vt 0.195144 0.000114
vt 0.663100 0.375257
vt 0.546365 0.486649
vt 0.663100 0.250286
vt 0.538128 0.250286
vt 0.663100 0.250057
vt 0.538128 0.250057
vt 0.413157 0.250286
vt 0.412929 0.000114
vt 0.412928 0.999886
vt 0.413157 0.250057
vt 0.663100 0.500229
vt 0.663100 0.000114
vt 0.000114 0.000114
s 0
f 3/1/1 14/2/1 16/3/1
f 1/4/2 16/5/2 15/6/2
f 13/7/3 1/8/3 15/9/3
f 5/10/1 18/11/1 14/2/1
f 8/12/4 5/13/4 7/14/4
f 7/14/5 3/15/5 1/4/5
f 17/16/3 7/17/3 13/7/3
f 11/18/3 13/7/3 2/19/3
f 14/2/1 12/20/1 4/21/1
f 2/19/3 15/9/3 9/22/3
f 15/6/6 10/23/6 9/24/6
f 16/3/1 4/21/1 10/25/1
f 28/2/1 21/1/1 30/3/1
f 30/5/7 19/4/7 29/6/7
f 27/7/3 19/8/3 24/17/3
f 18/11/1 23/10/1 28/2/1
f 23/13/8 8/12/8 24/14/8
f 21/15/9 24/14/9 19/4/9
f 17/16/3 24/17/3 8/26/3
f 11/18/3 27/7/3 17/16/3
f 12/20/1 28/2/1 22/21/1
f 20/19/3 29/9/3 27/7/3
f 26/23/10 29/6/10 25/24/10
f 22/21/1 30/3/1 26/25/1
f 38/2/1 32/1/1 40/3/1
f 40/5/11 31/4/11 39/6/11
f 37/7/3 31/8/3 35/17/3
f 42/11/1 33/10/1 38/2/1
f 33/13/12 36/12/12 35/14/12
f 32/15/13 35/14/13 31/4/13
f 41/16/3 35/17/3 36/26/3
f 11/18/3 37/7/3 41/16/3
f 12/20/1 38/2/1 4/21/1
f 2/19/3 39/9/3 37/7/3
f 10/23/14 39/6/14 9/24/14
f 4/21/1 40/3/1 10/25/1
f 44/1/1 48/2/1 50/3/1
f 43/4/15 50/5/15 49/6/15
f 47/7/3 43/8/3 49/9/3
f 45/10/1 42/11/1 48/2/1
f 36/12/16 45/13/16 46/14/16
f 46/14/17 44/15/17 43/4/17
f 41/16/3 46/17/3 47/7/3
f 11/18/3 47/7/3 20/19/3
f 48/2/1 12/20/1 22/21/1
f 20/19/3 49/9/3 25/22/3
f 49/6/18 26/23/18 25/24/18
f 50/3/1 22/21/1 26/25/1
f 3/1/1 5/10/1 14/2/1
f 1/4/2 3/15/2 16/5/2
f 13/7/3 7/17/3 1/8/3
f 5/10/1 6/27/1 18/11/1
f 8/12/4 6/28/4 5/13/4
f 7/14/5 5/13/5 3/15/5
f 17/16/3 8/26/3 7/17/3
f 11/18/3 17/16/3 13/7/3
f 14/2/1 18/11/1 12/20/1
f 2/19/3 13/7/3 15/9/3
f 15/6/6 16/5/6 10/23/6
f 16/3/1 14/2/1 4/21/1
f 28/2/1 23/10/1 21/1/1
f 30/5/7 21/15/7 19/4/7
f 27/7/3 29/9/3 19/8/3
f 18/11/1 6/27/1 23/10/1
f 23/13/8 6/28/8 8/12/8
f 21/15/9 23/13/9 24/14/9
f 17/16/3 27/7/3 24/17/3
f 11/18/3 20/19/3 27/7/3
f 12/20/1 18/11/1 28/2/1
f 20/19/3 25/22/3 29/9/3
f 26/23/10 30/5/10 29/6/10
f 22/21/1 28/2/1 30/3/1
f 38/2/1 33/10/1 32/1/1
f 40/5/11 32/15/11 31/4/11
f 37/7/3 39/9/3 31/8/3
f 42/11/1 34/27/1 33/10/1
f 33/13/12 34/28/12 36/12/12
f 32/15/13 33/13/13 35/14/13
f 41/16/3 37/7/3 35/17/3
f 11/18/3 2/19/3 37/7/3
f 12/20/1 42/11/1 38/2/1
f 2/19/3 9/22/3 39/9/3
f 10/23/14 40/5/14 39/6/14
f 4/21/1 38/2/1 40/3/1
f 44/1/1 45/10/1 48/2/1
f 43/4/15 44/15/15 50/5/15
f 47/7/3 46/17/3 43/8/3
f 45/10/1 34/27/1 42/11/1
f 36/12/16 34/28/16 45/13/16
f 46/14/17 45/13/17 44/15/17
f 41/16/3 36/26/3 46/17/3
f 11/18/3 41/16/3 47/7/3
f 48/2/1 42/11/1 12/20/1
f 20/19/3 47/7/3 49/9/3
f 49/6/18 50/5/18 26/23/18
f 50/3/1 48/2/1 22/21/1
